<?xml version="1.0" encoding="utf-8"?>
<!-- Generator: Adobe Illustrator 25.1.0, SVG Export Plug-In . SVG Version: 6.00 Build 0)  -->
<svg version="1.1" id="Layer_1" xmlns="http://www.w3.org/2000/svg" xmlns:xlink="http://www.w3.org/1999/xlink" x="0px" y="0px"
	 viewBox="0 0 2500 2500" style="enable-background:new 0 0 2500 2500;" xml:space="preserve">
<style type="text/css">
	.st0{fill-rule:evenodd;clip-rule:evenodd;fill:none;stroke:#000000;stroke-width:3;stroke-miterlimit:10;}
</style>
<g>
	<path class="st0" d="M792.6,1018.6c0-90.2,18.8-199,27.9-289.6c14.6-141.2,73.4-335.7,178.5-440.9c28.2-28.2,49.3-13,66.9,11.4
		c29.5,40.9,74,95.8,100,138c36.4,59.7,133.7,84.7,193.1,35.4c34.1-28.2,32.8-91.9,32.5-133.4c-0.3-42.9-53.2-97.7-68.5-136.7
		c-6.8-17.8-24.7-44.5-6.2-62.3c15.3-14.6,49.3-7.1,64.3,1.6c63.6,38.3,118.1,90.6,153.9,159.4c55.5,108.1,97.4,240.2,113.9,387
		c10.4,90.9,22.1,197.4,22.1,297.4l-10.5,928.1h92.2l13.1-929.8c0-98.3-5.2-205.8-19.8-301.9c-22.4-149.3-59.1-307.8-138-437.9
		C1549,147,1465.9,61,1381.2,41.2c-39.3-9.1-91.9-6.2-126.3,23c-42.5,36-42.9,95.4-31.8,146.7c9.4,42.2,53.2,82.8,65.3,123
		c16.9,55.2-14.3,94.1-48.4,44.5c-29.5-42.9-69.5-98.7-101.6-140.2c-57.5-74.3-129.5-89.6-204.5-19.2
		c-90.6,85.7-157.8,247-181.5,366.8c-28.2,140.6-46.1,281.1-52.3,424.9L672.7,1914h80.6L792.6,1018.6L792.6,1018.6z M1941.5,2022.4
		c-54.9-22.4-89.6-31.8-150.3-40.3c-3.2,33.1-14,64.9-26.3,95.1c26.3-3.2,95.8,18.2,120.8,27.3c40.3,14.9,40.6,79.5,9.1,101.9
		c-175.3,125.3-403.9,159.7-617.5,159.1c-185.7-0.3-439.2-20.5-597.6-122.1c-24.7-15.9-103.6-70.8-76.3-115.9
		c20.4-33.4,98.3-43.5,118.2-43.8c238-4.6,457.1,125.6,661.3,226.9c0,0,15.6,6.2,24,6.2c26.9,0,48.7-21.7,48.7-48.6c0,0,0-0.1,0-0.1
		c0-17.9-17.5-39-25-42.5c-225.9-113-448.7-239.9-713.5-239.9c-69.8,0-165.6,18.5-210.4,88.6c-65.9,103.2,48.7,207.8,124.3,253.9
		c179.9,110.4,437.3,135,647.6,135c208.1,0,538.6-42.5,694.1-192.5c44.8-42.9,74.7-102.6,52.3-166.2
		C2014.2,2074.7,1981.4,2038.6,1941.5,2022.4L1941.5,2022.4z"/>
</g>
</svg>
