<?xml version="1.0" encoding="utf-8"?>
<!-- Generator: Adobe Illustrator 25.1.0, SVG Export Plug-In . SVG Version: 6.00 Build 0)  -->
<svg version="1.1" id="Layer_1" xmlns="http://www.w3.org/2000/svg" xmlns:xlink="http://www.w3.org/1999/xlink" x="0px" y="0px"
	 viewBox="0 0 738.3 1022.6" style="enable-background:new 0 0 738.3 1022.6;" xml:space="preserve">
<style type="text/css">
	.st0{fill:none;stroke:#000000;stroke-width:3;stroke-miterlimit:10;}
</style>
<g id="Page-1">
	<g id="_x31_024">
		<g id="Chipotle_Mexican_Grill_logo" transform="translate(50 50)">
			<g id="layer1" transform="translate(.302 .485)">
				<path id="path3419" class="st0" d="M183.8,761.1c0-6.7-8.4-25.1-15.1-31.8c-5-5-10-15.1-15.1-23.4
					c-6.7-13.4-16.7-23.4-21.8-36.8c-6.7-25.1-18.4-51.9-30.1-78.6c-1.7-15.1-8.4-31.8-10-46.9c-1.7-10-1.7-20.1-1.7-31.8
					c0-10,1.7-21.8,1.7-33.5v-45.2c0-13.4,6.7-25.1,6.7-40.2c0-10,16.7-23.4,20.1-30.1c40.2-8.4,70.3-20.1,112.1-25.1
					c55.2,1.7,58.6,6.7,85.3,10c25.1,5,36.8,20.1,56.9,33.5c10,5-5,20.1-6.7,30.1c-1.7,8.4-6.7,15.1-10,21.8
					c-10,23.4-26.8,43.5-33.5,68.6c-10,21.8-15.1,26.8-25.1,53.5c-3.3,6.7-8.4,20.1-11.7,26.8c-3.3,8.4-1.7,40.2,0,50.2
					c3.3,11.7,1.7,23.4,6.7,35.1c1.7,3.3,1.7,6.7,3.3,10c1.7,8.4,5,16.7,6.7,25.1c8.4,30.1,18.4,55.2,30.1,78.6
					c6.7,16.7,16.7,23.4-3.3,18.4c-8.4-1.7-8.4-5-13.4-10s-11.7-8.4-18.4-13.4c-6.7-5-10-11.7-15.1-16.7c-10-10-11.7-20.1-23.4-31.8
					c-6.7-31.8-31.8-65.3-48.5-98.7c-6.7-13.4-15.1-23.4-21.8-36.8c-5-10-10-15.1-13.4-25.1c-3.3-13.4-1.7-33.5-1.7-50.2
					c-3.3-25.1-5-43.5,3.3-66.9c1.7-33.5,26.8-26.8,50.2-25.1c15.1,0,21.8,0,31.8,6.7c21.8,16.7,11.7,15.1,11.7,40.2
					c0,11.7-1.7,23.4-8.4,33.5c-6.7,11.7-11.7,25.1-18.4,38.5c-1.7,1.7-1.7-18.4-1.7-23.4c0-11.7-10-20.1-20.1-18.4
					c-15.1,3.3-15.1,10-21.8,25.1c-3.3,8.4,3.3,25.1,5,35.1c5,23.4,23.4,40.2,45.2,31.8c6.7-6.7,13.4-16.7,13.4-25.1
					c0-11.7,6.7-23.4,11.7-35.1c5-13.4,11.7-28.4,18.4-40.2c6.7-21.8,21.8-41.8,8.4-66.9c-8.4-20.1-16.7-35.1-38.5-41.8
					c-8.4-1.7-35.1-1.7-43.5,0c-26.8,0-46.9,8.4-72,15.1c-8.4,1.7-8.4,13.4-10,21.8c-3.3,11.7-3.3,25.1-6.7,36.8
					c-3.3,15.1,1.7,33.5-3.3,48.5c-3.3,10-3.3,35.1,1.7,46.9c6.7,13.4,8.4,28.4,18.4,41.8c16.7,21.8,20.1,45.2,36.8,65.3
					c11.7,13.4,13.4,26.8,21.8,41.8c1.7,1.7,1.7,5,3.3,6.7c8.4,16.7,26.8,38.5,36.8,55.2c6.7,11.7,18.4,26.8,28.4,33.5
					c10,8.4,18.4,18.4,26.8,28.4C354.2,860,391,865,409.4,849.9c8.4-8.4-10-21.8-13.4-25.1c-15.1-15.1-26.8-36.8-35.1-60.2
					c-5-18.4-13.4-35.1-21.8-50.2c-8.4-25.1-16.7-51.9-18.4-78.6c0-15.1-1.7-25.1,1.7-40.2c3.3-33.5,33.5-61.9,40.2-87
					c8.4-10,13.4-18.4,16.7-31.8c23.4-20.1,41.8-56.9,53.5-88.7c1.7-8.4-11.7-20.1-15.1-26.8c-3.3-6.7-16.7-16.7-23.4-23.4
					c-6.7-6.7-8.4-15.1-15.1-21.8c-6.7-6.7-18.4-15.1-26.8-11.7c-10,5-11.7,15.1-23.4,15.1h-28.4c-15.1,0-31.8-5-48.5-8.4
					c-10-1.7-33.5-8.4-43.5-13.4c-8.4-5-21.8,0-33.5,1.7C119.9,311.1,63,291,59.6,356.3c-5,28.4-13.4,51.9-15.1,80.3
					c-1.7,36.8,0,77,0,115.5c0,15.1,3.3,28.4,8.4,41.8c6.7,18.4,18.4,33.5,26.8,51.9c30.1,43.5,55.2,77,80.3,103.7
					C175.4,759.4,167,744.4,183.8,761.1L183.8,761.1z"/>
				<path id="path3930" class="st0" d="M259.1,229l-78.6-63.6c-3.3,0-5,1.7-8.4,1.7c-28.4,6.7-82,1.7-103.7,16.7
					C29.9,205.6,4.8,244-22,270.8c-8.4,5-5,25.1-8.4,35.1c-6.7,16.7-5,35.1-11.7,51.9c-6.7,18.4-6.7,45.2-6.7,66.9
					c0,30.1,1.7,60.2,1.7,90.4c0,21.8,5,61.9,10,82c0,56.9,128.8,189.1,202.5,316.3c10,20.1,18.4,21.8,36.8,25.1
					c3.3,0,8.4,1.7,11.7,1.7c26.8,3.3,40.2,18.4,68.6,18.4c13.4,0,28.4,6.7,41.8,10s35.1,1.7,48.5,1.7c23.4,0,48.5-1.7,72-1.7
					c13.4,0,25.1,3.3,36.8,0c11.7-3.3,26.8,0,38.5,0s26.8-5,40.2-5c8.4,0,23.4-21.8,31.8-25.1c18.4-8.4,28.4-28.4,38.5-45.2
					c6.7-11.7,13.4-25.1,16.7-38.5c3.3-13.4,0-26.8-13.4-30.1c-11.7-3.3-15.1-10-26.8-11.7c-11.7-3.3-18.4-3.3-28.4-10
					c-15.1-11.7-35.1-23.4-50.2-36.8c-15.1-11.7-33.5-23.4-51.9-33.5c-11.7-6.7-13.4-13.4-25.1-10c-11.7,1.7-16.7-26.8-11.7-48.5
					c3.3-16.7-3.3-20.1-8.4-31.8c-11.7-28.4-25.1-13.4,3.3-38.5c18.4-13.4,33.5-51.9,45.2-72c18.4-28.4,45.2-60.2,45.2-88.7
					c10-15.1,20.1-50.2,15.1-68.6c-1.7-20.1-23.4-58.6-41.8-92c-30.1-18.4-33.5-70.3-61.9-83.7c-8.4-1.7-20.1,0-25.1,1.7
					C403,202.3,393,229,384.6,229c26.8,28.4,46.9,60.2,68.6,88.7c15.1,31.8,33.5,50.2,31.8,87c-5,48.5-38.5,93.7-50.2,115.5
					c-1.7,3.3-18.4,26.8-20.1,30.1c-6.7,13.4-8.4,11.7-13.4,23.4c-5,10-13.4,20.1-16.7,30.1c-5,10,0,40.2,1.7,50.2
					c3.3,15.1,15.1,11.7,18.4,28.4c3.3,11.7,0,30.1,0,43.5c0,11.7,1.7,31.8,1.7,43.5s16.7,3.3,26.8,5c15.1,3.3,20.1,23.4,38.5,30.1
					c16.7,6.7,50.2,36.8,63.6,46.9c13.4,10,1.7-6.7-3.3,11.7c-48.5,35.1-112.1,38.5-172.4,35.1c-118.8-10-127.2,1.7-172.4-51.9
					c-63.6-82-122.2-159-180.7-251c-1.7-58.6,0-128.8,3.3-187.4c0-33.5,8.4-40.2,8.4-73.6c8.4-46.9,48.5-77,85.3-88.7
					C155.3,230.6,207.2,229,259.1,229L259.1,229z"/>
				<path id="path3932" class="st0" d="M150.3,143.6c-20.1-10-43.5-6.7-63.6-3.3c-6.7-1.7,16.7-11.7,21.8-16.7
					c8.4-10,21.8-13.4,33.5-18.4c16.7,1.7,43.5,10,61.9,16.7c16.7,3.3,38.5,10,55.2,10c60.2-55.2,130.5-112.1,199.1-164
					c10-5,103.7-18.4,128.8-16.7c16.7,8.4,36.8,1.7,46.9,16.7c16.7,25.1,58.6,60.2,51.9,80.3c0,25.1-8.4,50.2-15.1,75.3
					c0,0-38.5,3.3-40.2,3.3h-25.1c-10,0-13.4-1.7-16.7-3.3c16.7-11.7,26.8-20.1,41.8-38.5c5-5-1.7-18.4-3.3-23.4
					c-6.7-20.1-20.1-36.8-26.8-56.9c-30.1,1.7-68.6,0-98.7,8.4c-10,5-21.8,8.4-30.1,16.7c-16.7,18.4-21.8,18.4-48.5,46.9
					c3.3,26.8-13.4,51.9-10,78.6c13.4,30.1,8.4,21.8,55.2,26.8c8.4,1.7,21.8-1.7,26.8,1.7c1.7,1.7,1.7,3.3,0,5
					c-1.7,3.3-1.7,18.4-15.1,25.1c-11.7,6.7-41.8,10-55.2,13.4c-1.7,0-5,1.7-6.7,1.7c-8.4,1.7-13.4,3.3-23.4,5
					c-26.8,3.3-36.8,21.8-53.5,33.5c-11.7,6.7-33.5,5-51.9,5c-10,0-13.4-1.7-20.1-5c-5-3.3-6.7-13.4-8.4-18.4s-13.4-15.1-16.7-18.4
					c-3.3-10-8.4-10-15.1-16.7c-8.4-8.4-15.1-15.1-25.1-23.4c-6.7-5-8.4-10-15.1-16.7C175.4,160.4,168.7,148.7,150.3,143.6
					L150.3,143.6z"/>
			</g>
		</g>
	</g>
</g>
</svg>
