<?xml version="1.0" encoding="utf-8"?>
<!-- Generator: Adobe Illustrator 25.1.0, SVG Export Plug-In . SVG Version: 6.00 Build 0)  -->
<svg version="1.1" xmlns="http://www.w3.org/2000/svg" xmlns:xlink="http://www.w3.org/1999/xlink" x="0px" y="0px"
	 viewBox="0 0 2500 1750" style="enable-background:new 0 0 2500 1750;" xml:space="preserve">
<style type="text/css">
	.st0{fill:none;stroke:#000000;stroke-width:3;stroke-miterlimit:10;}
	.st1{fill:#FFFFFF;stroke:#000000;stroke-width:3;stroke-miterlimit:10;}
</style>
<g id="Layer_1">
	<g>
		<path class="st0" d="M1091.1,1375.4c72.8,27.2,145.8,31,145.8,31c83.2,1,199.1-19.1,285.3-68.2c18.2-9.6,35.9-19.9,53.1-31.1
			c182.3-117.5,308.1-277,392.5-361.9c33.2-33.4,79.1-69.4,79.1-69.4s-45.9-36-79.1-69.3"/>
		<path class="st0" d="M1436.6,374.4c-97.2-33.5-116.6-30.1-199.7-29.1c-83.2-1-199.1,19.1-285.3,68.2c-18.2,9.6-35.9,19.9-53.1,31
			C716.2,562,590.4,721.5,506,806.5c-33.2,33.4-79.2,69.3-79.2,69.3s46,36,79.1,69.4c84.4,84.9,75.3,129.3,247.7,256.4"/>
		<path class="st0" d="M1967.8,806.5"/>
		<path class="st0" d="M1245.1,455.7"/>
	</g>
	<line class="st0" x1="1738.1" y1="557.4" x2="1967.8" y2="806.5"/>
</g>
<g id="Layer_4">
	<path class="st0" d="M525,1080.5c181.7,125,468.2,217.5,701,212.2c97.6-2.2,190-17.7,272.9-43.8c-116.8,73.8-275.6,121-451,124.9
		c-179.8,4-390.6-49-561-130.9L525,1080.5z"/>
</g>
<g id="Layer_3">
	<path class="st0" d="M1250.6,457.4c-97.6,2.2-190,17.7-272.9,43.9c116.8-73.9,275.6-121,451-124.9c179.8-4,390.6,49,561,130.9
		l-38.1,162.4C1769.8,544.6,1483.3,452.2,1250.6,457.4"/>
</g>
<g id="Layer_2">
	<path class="st0" d="M751.5,607.3h238c154.4,0,260.8,42.8,244.3,191.8c-16.5,149.1-86.9,299.1-285,299.1H670.6l9.7-44.2l24-4.2
		L798,655.7l-56.2-4.9L751.5,607.3z M876.4,1044.9c12.3,2.1,24.5,3.5,48.7,3.5c119.4,0,150-278.4,146.1-321.9
		c-5.5-59.6-33.8-69.4-63.6-69.4h-39.3L876.4,1044.9z"/>
	<path class="st1" d="M1701.1,1097.5c-13.2,5.6-27.2,11.9-42.5,11.9c-39.5,0-39.5-14.3-57.9-40.2c98.5-54.7,159.3-166.1,159.3-294.2
		c0-116.2-90.4-180-241.1-180c-168,0-307.1,154.7-311.4,308.1c-3.7,130.1,60.3,206,243.3,203.9c13.7-0.1,28.2-0.7,41.7-2.8
		c22.5,54.7,40.3,78.1,114.4,78.1c29.1,0,57.9-7.3,81.9-20.6l13.1-56.6L1701.1,1097.5z M1518,989.9c-23.6-16.3-53-23.7-81.7-25.5
		l-11.3,49.1c24.9,3.4,35.5,16.4,44.9,35.4c-8.4,5.6-17,8.4-26.7,8.4c-46,0-65.2-25.3-68-58.2c-4.6-53.3,45-354.2,142.6-354.2
		c46,0,65.1,25.3,68,58.2C1589,740.2,1565.7,898,1518,989.9"/>
</g>
</svg>
