<?xml version="1.0" encoding="utf-8"?>
<!-- Generator: Adobe Illustrator 25.1.0, SVG Export Plug-In . SVG Version: 6.00 Build 0)  -->
<svg version="1.1" id="Layer_1" xmlns="http://www.w3.org/2000/svg" xmlns:xlink="http://www.w3.org/1999/xlink" x="0px" y="0px"
	 viewBox="0 0 1625 1064.7" style="enable-background:new 0 0 1625 1064.7;" xml:space="preserve">
<style type="text/css">
	.st0{fill:none;stroke:#000000;stroke-width:3;stroke-miterlimit:10;}
	.st1{fill:#FFFFFF;stroke:#000000;stroke-width:3;stroke-miterlimit:10;}
</style>
<g id="Layer_1_1_">
	<g>
		<path class="st0" d="M666.7,1032.2c72.8,27.2,145.8,31,145.8,31c83.2,1,199.1-19.1,285.3-68.2c18.2-9.6,35.9-19.9,53.1-31.1
			c182.3-117.5,308.1-277,392.5-361.9c33.2-33.4,79.1-69.4,79.1-69.4s-45.9-36-79.1-69.3"/>
		<path class="st0" d="M1012.2,31.2C915-2.3,895.6,1.1,812.5,2.1c-83.2-1-199.1,19.1-285.3,68.2c-18.2,9.6-35.9,19.9-53.1,31
			c-182.3,117.5-308.1,277-392.5,362c-33.2,33.4-79.2,69.3-79.2,69.3s46,36,79.1,69.4c84.4,84.9,75.3,129.3,247.7,256.4"/>
		<path class="st0" d="M1543.4,463.3"/>
		<path class="st0" d="M820.7,112.5"/>
	</g>
	<line class="st0" x1="1313.7" y1="214.2" x2="1543.4" y2="463.3"/>
</g>
<g id="Layer_4">
	<path class="st0" d="M100.6,737.3c181.7,125,468.2,217.5,701,212.2c97.6-2.2,190-17.7,272.9-43.8c-116.8,73.8-275.6,121-451,124.9
		c-179.8,4-390.6-49-561-130.9L100.6,737.3z"/>
</g>
<g id="Layer_3">
	<path class="st0" d="M826.2,114.2c-97.6,2.2-190,17.7-272.9,43.9c116.8-73.9,275.6-121,451-124.9c179.8-4,390.6,49,561,130.9
		l-38.1,162.4C1345.4,201.4,1058.9,109,826.2,114.2"/>
</g>
<g id="Layer_2_1_">
	<path class="st0" d="M327.1,264.1h238c154.4,0,260.8,42.8,244.3,191.8C792.9,605,722.5,755,524.4,755H246.2l9.7-44.2l24-4.2
		l93.7-394.1l-56.2-4.9L327.1,264.1z M452,701.7c12.3,2.1,24.5,3.5,48.7,3.5c119.4,0,150-278.4,146.1-321.9
		c-5.5-59.6-33.8-69.4-63.6-69.4h-39.3L452,701.7z"/>
	<path class="st1" d="M1276.7,754.3c-13.2,5.6-27.2,11.9-42.5,11.9c-39.5,0-39.5-14.3-57.9-40.2c98.5-54.7,159.3-166.1,159.3-294.2
		c0-116.2-90.4-180-241.1-180c-168,0-307.1,154.7-311.4,308.1c-3.7,130.1,60.3,206,243.3,203.9c13.7-0.1,28.2-0.7,41.7-2.8
		c22.5,54.7,40.3,78.1,114.4,78.1c29.1,0,57.9-7.3,81.9-20.6l13.1-56.6L1276.7,754.3z M1093.6,646.7c-23.6-16.3-53-23.7-81.7-25.5
		l-11.3,49.1c24.9,3.4,35.5,16.4,44.9,35.4c-8.4,5.6-17,8.4-26.7,8.4c-46,0-65.2-25.3-68-58.2c-4.6-53.3,45-354.2,142.6-354.2
		c46,0,65.1,25.3,68,58.2C1164.6,397,1141.3,554.8,1093.6,646.7"/>
</g>
</svg>
