<?xml version="1.0" encoding="utf-8"?>
<!-- Generator: Adobe Illustrator 25.1.0, SVG Export Plug-In . SVG Version: 6.00 Build 0)  -->
<svg version="1.1" id="Layer_1" xmlns="http://www.w3.org/2000/svg" xmlns:xlink="http://www.w3.org/1999/xlink" x="0px" y="0px"
	 viewBox="0 0 2496 2500" style="enable-background:new 0 0 2496 2500;" xml:space="preserve">
<style type="text/css">
	.st0{fill:none;stroke:#000000;stroke-width:3;stroke-miterlimit:10;}
	.st1{fill:#FFFFFF;stroke:#000000;stroke-width:3;stroke-miterlimit:10;}
</style>
<path class="st0" d="M608.2,610.8L25.5,1193.4c-34.1,34-34.1,89.3,0,123.3c0,0,0,0,0,0l494.3,497.4c34,34.1,89.2,34.1,123.3,0.1
	c0,0,0,0,0.1-0.1l582.6-582.6L608.2,610.8L608.2,610.8z"/>
<path class="st0" d="M2470.5,1310.2c34.1-34,34.1-89.3,0-123.3c0,0,0,0,0,0l-494.3-497.4c-34-34.1-89.2-34.1-123.3-0.1
	c0,0,0,0-0.1,0.1l-1164,1164.1c-34.1,34-34.1,89.2-0.1,123.3c0,0,0,0,0.1,0.1l494.3,497.4c34,34.1,89.2,34.1,123.3,0.1
	c0,0,0,0,0.1-0.1L2470.5,1310.2L2470.5,1310.2z"/>
<path class="st0" d="M1272.8,1186.7L1810,646.4c34.1-34,34.1-89.2,0.1-123.3c0,0,0,0-0.1-0.1L1315.7,25.7
	c-34-34.1-89.2-34.1-123.3-0.1c0,0,0,0-0.1,0.1L655.1,565.9L1272.8,1186.7z"/>
<circle class="st1" cx="1270.6" cy="589.8" r="152"/>
<circle class="st1" cx="816.3" cy="1250" r="152"/>
<circle class="st1" cx="362" cy="1250" r="152"/>
</svg>
