<?xml version="1.0" encoding="utf-8"?>
<!-- Generator: Adobe Illustrator 25.1.0, SVG Export Plug-In . SVG Version: 6.00 Build 0)  -->
<svg version="1.1" id="Layer_1" xmlns="http://www.w3.org/2000/svg" xmlns:xlink="http://www.w3.org/1999/xlink" x="0px" y="0px"
	 viewBox="0 0 2499.2 2502.9" style="enable-background:new 0 0 2499.2 2502.9;" xml:space="preserve">
<style type="text/css">
	.st0{fill:none;stroke:#000000;stroke-width:3;stroke-miterlimit:10;}
	.st1{fill:#FFFFFF;stroke:#000000;stroke-width:3;stroke-miterlimit:10;}
</style>
<path class="st0" d="M609.8,612.2L27.1,1194.8c-34.1,34-34.1,89.3,0,123.3l0,0l494.3,497.4c34,34.1,89.2,34.1,123.3,0.1
	c0,0,0,0,0.1-0.1l582.6-582.6L609.8,612.2L609.8,612.2z"/>
<path class="st0" d="M2472.1,1311.6c34.1-34,34.1-89.3,0-123.3l0,0l-494.3-497.4c-34-34.1-89.2-34.1-123.3-0.1c0,0,0,0-0.1,0.1
	L690.4,1855c-34.1,34-34.1,89.2-0.1,123.3c0,0,0,0,0.1,0.1l494.3,497.4c34,34.1,89.2,34.1,123.3,0.1c0,0,0,0,0.1-0.1L2472.1,1311.6
	L2472.1,1311.6z"/>
<path class="st0" d="M1274.4,1188.1l537.2-540.3c34.1-34,34.1-89.2,0.1-123.3c0,0,0,0-0.1-0.1L1317.3,27.1
	C1283.3-7,1228.1-7,1194,27c0,0,0,0-0.1,0.1L656.7,567.3L1274.4,1188.1z"/>
<circle class="st1" cx="1272.2" cy="591.2" r="152"/>
<circle class="st1" cx="817.9" cy="1251.4" r="152"/>
<circle class="st1" cx="363.6" cy="1251.4" r="152"/>
</svg>
