<?xml version="1.0" encoding="utf-8"?>
<!-- Generator: Adobe Illustrator 25.1.0, SVG Export Plug-In . SVG Version: 6.00 Build 0)  -->
<svg version="1.1" id="Layer_1" xmlns="http://www.w3.org/2000/svg" xmlns:xlink="http://www.w3.org/1999/xlink" x="0px" y="0px"
	 viewBox="0 0 1568 2500" style="enable-background:new 0 0 1568 2500;" xml:space="preserve">
<style type="text/css">
	.st0{fill:none;stroke:#000000;stroke-width:3;stroke-miterlimit:10;}
</style>
<path class="st0" d="M748.2,1021.8c-7.8,0.7-30.1-1.4-54.7,4.5c-24.6,5.9-21.2,14.4-21.7,28.1c-0.5,12.3,0.5,21.2-0.2,37.8
	c-0.7,16.5-3.7,31.2,3.6,39.2c7.3,7.9,18,13.3,48.9,11.6c29.4-1.6,39.2-2.7,42.5-2.4c3.3,0.2,68.3-3.2,77.8-6.3
	c8.8-2.9,12,3.4,6.1,15c-12.7,25.1-66.9,124.1-174.7,217.3c-18.1,13.9,74.7,37.5,82,34.8c7.4-2.7,59.3-54.2,90.4-101.7
	c1.7-1.9,16.6-23.2,28.5-52.7c1.9-4.8,5.6-7.8,6.8-0.4c0.8,5.4,11.8,144.9,4.6,195.9c-3.7,25.9,19.6,21.8,81.1,36.1
	c15.2,3.5,6.4-236.3-29.9-335.1l0,0c-0.3-0.8-0.5-1.6-0.5-2.4c0-3.4,2.5-6.2,5.8-6.8c0,0,1.5-0.3,2.4-0.4
	c20.9-2.9,69.1-1.1,77.3-0.7c8.1,0.2,29.7,4,41.4,5c11.5,1.1,37.6,3.7,37.1-29.6c-0.1-8.9-0.1-17.8-0.1-26.1c0-1.1,0-2.3,0-3.4
	c0-2.1,0-4.1,0.1-6.2v-3.5c0-1.1,0-2.3,0.1-3.4c0-1,0-2,0.1-3c0-1.8,0.1-3.5,0.2-5.1c0-0.5,0-1,0-1.4c0-1.2,0.1-2.3,0.1-3.3
	c0-0.5,0.1-1,0.1-1.5c0.1-0.9,0.1-1.7,0.2-2.4c0-0.2,0-0.5,0-0.7c0.1-1,0.2-2.1,0.2-3.3c0.3-8.1-1.3-20-17.5-24L748.2,1021.8z"/>
</svg>
