<?xml version="1.0" encoding="utf-8"?>
<!-- Generator: Adobe Illustrator 25.1.0, SVG Export Plug-In . SVG Version: 6.00 Build 0)  -->
<svg version="1.1" id="Layer_1" xmlns="http://www.w3.org/2000/svg" xmlns:xlink="http://www.w3.org/1999/xlink" x="0px" y="0px"
	 viewBox="0 0 2500 1946" style="enable-background:new 0 0 2500 1946;" xml:space="preserve">
<style type="text/css">
	.st0{fill:none;stroke:#000000;stroke-width:3;stroke-miterlimit:10;}
</style>
<path class="st0" d="M2053.7,1461.6c-192.5-26.1-314.4-74-352.9-140.5c-11.4-19.7-14.6-37.4-10.1-52.6c5.2-16.3,18.9-30.2,41.3-41.7
	c2.1-0.6,5.9-4.7,5.9-10.7c0-6.8-5.7-12-12.4-12c-2.5,0-4.9,0.2-7.4,0.6c-18.9,5.8-46.3,11.7-78.3,16.3
	c-91.7,14.3-188.9,18.6-287.7,12.5C934.9,1207.5,605,1005.8,617.5,784c4.2-75.5,49.2-148.4,126.4-205
	c113.8-83.7,224.9-102.8,284.3-106c7.5-0.4,11.7-6.4,11.7-12.4s-4.3-11.8-12-12.5c-82.2-5.4-307,10.7-489.1,96.1
	C380.6,618,289.9,724.5,283.1,842.8c-6.4,120,73,237.4,224.2,330.9c149.5,92.2,351.5,150.4,568.9,163.6
	c71.5,4.7,143.1,3.9,212.8-2.1c3.7,0.4,6.5,1.8,8.6,4.3c78.5,126.7,345,178.1,754.8,146.5c6.8,0,12.2-5.7,12.2-12
	C2064.2,1465.5,2057.3,1462,2053.7,1461.6"/>
<path class="st0" d="M1892.6,459.1c-149.5-92.6-351.2-150.4-568.5-164c-29.1-1.8-58.6-3-87.1-3c-267.2-1.7-434.4,60.8-551.2,117.1
	c-3.9,2.1-6.3,6.8-6.3,11.1c0,6.9,5.4,12.5,12,12.5c0.7,0,3.2-0.4,3.9-0.7c96.7-28.1,161.4-30.9,257.9-34.3
	c116.5-4.2,211.8,11.4,281.8,25.6c332.2,66.1,557.5,241.2,547.5,425.2c-4.2,74.6-47.6,145.5-125.5,204.2
	c-107.4,81.9-217.1,102.9-289.7,106.3c-1.7,0-4.7,0.4-4.7,0.4c-6.3,0.7-10.9,6-10.9,12.2c0,6.8,5,11.7,10.9,12.4
	c1.8,0.2,2.8,0.2,4.3,0.2c85.3,7.6,318.4-13.2,495.2-96.6c157.6-74,247.9-179.9,254.3-298.2C2123.5,669.7,2043.8,552.3,1892.6,459.1
	"/>
</svg>
