<?xml version="1.0" encoding="utf-8"?>
<!-- Generator: Adobe Illustrator 25.1.0, SVG Export Plug-In . SVG Version: 6.00 Build 0)  -->
<svg version="1.1" id="Layer_1" xmlns="http://www.w3.org/2000/svg" xmlns:xlink="http://www.w3.org/1999/xlink" x="0px" y="0px"
	 viewBox="0 0 2500 2500" style="enable-background:new 0 0 2500 2500;" xml:space="preserve">
<style type="text/css">
	.st0{fill-rule:evenodd;clip-rule:evenodd;fill:none;stroke:#000000;stroke-width:3;stroke-miterlimit:10;}
</style>
<g>
	<path class="st0" d="M2292.1,835.1L2395.5,700c39.7-47.7,49.7-65.6,45.7-79.5c-2-6-8-11.9-21.9-17.9c-15.9-4-57.6-2-103.3,4
		c-39.7,6-143,23.8-168.9,29.8L285.3,1002c-59.6,11.9-89.4,43.7-89.4,99.3c0,75.5,63.6,103.3,115.2,115.2
		c111.3,21.9,1818,377.5,1835.9,381.5c105.3,23.9,129.2,8,145.1-9.9c11.9-13.9,15.9-41.7,2-67.6l-149-365.6
		c-35.8-67.5,0-123.2,45.7-174.8L2292.1,835.1z"/>
	<path class="st0" d="M2421.3,564.9c-29.8-8-87.4-4-111.3-2c-41.7,6-145.1,23.8-170.9,29.8l-947.8,184.8
		C770.2,696,374.8,618.6,356.9,614.6c-25.8-6-129.2-23.9-168.9-29.8c-35.8-6-87.4-9.9-111.3-4c-23.8,6-39.7,19.9-39.7,41.7
		c-2,23.8,7.9,43.7,51.7,91.4c0,0,141.1,157,214.6,238.4l-27.8,6c-77.5,13.9-123.2,67.5-123.2,143.1c-2,39.7,11.9,73.5,37.8,101.3
		c19.9,23.8,51.7,41.7,89.4,51.7c-29.8,33.8-57.6,63.6-63.6,69.5c-21.9,25.8-41.7,47.7-47.7,75.5c0,4,0,7.9-2,11.9
		c-4,53.7,41.7,81.5,145,45.7c47.7-15.9,220.5-77.5,349.7-121.2c532.5,109.3,1460.4,302,1476.3,306c91.4,21.9,147,13.9,174.8-15.9
		c21.9-23.8,27.8-53.6,15.9-87.4c-2-2-4-8-8-15.9c11.9,31.8,4,63.6-9.9,81.5c-25.8,27.8-61.6,39.7-168.9,15.9
		c0,0-1720.7-357.7-1833.9-381.5c-93.4-19.9-133.1-71.5-133.1-137.1c0-63.6,35.8-107.3,105.3-121.2c0,0,1824-357.6,1863.7-365.6
		c25.8-6,129.2-23.9,170.9-29.8c33.8-6,85.4-9.9,111.3-4c21.9,6,37.8,19.9,37.8,41.7C2463,592.7,2451.1,574.8,2421.3,564.9
		L2421.3,564.9z M303.2,1435.2c-49.7,17.9-87.4,19.9-105.3,6c-8-6-9.9-17.9-8-33.8c4-21.8,17.9-41.7,43.7-67.5
		c0,0,33.8-37.8,71.5-79.5c29.8,6,149,31.8,313.9,65.6L303.2,1435.2z M106.5,700c-43.7-49.7-49.7-65.6-45.7-79.5
		c0-6,6-11.9,21.9-17.9c15.9-4,55.6-2,101.3,4c39.7,6,143.1,23.8,168.9,29.8l780.9,153l-804.7,157L106.5,700z"/>
	<path class="st0" d="M2288.2,843.1L2395.5,700c41.7-51.7,49.7-65.6,45.7-79.5c-2-6-8-11.9-21.9-17.9c-15.9-4-57.6-2-103.3,4
		c-39.7,6-143,23.8-168.9,29.8L285.3,1002c-59.6,11.9-89.4,43.7-89.4,99.3c0,75.5,63.6,103.3,115.2,115.2
		c111.3,21.9,1818,377.5,1835.9,381.5c105.3,23.9,129.2,8,145.1-9.9c11.9-13.9,15.9-41.7,2-67.6l-149-367.6
		c-37.8-67.5,6-129.2,49.7-178.8L2288.2,843.1z M2276.3,898.7l-67.6,95.4c-49.7,53.6-71.5,95.4-43.7,147l149,367.6v2c2,4,4,8,6,11.9
		c11.9,31.8,4,63.6-9.9,81.5c-25.8,27.8-61.6,39.7-168.9,15.9c0,0-1720.7-357.7-1833.9-381.5c-93.4-19.9-133.1-71.5-133.1-137.1
		c0-63.6,35.8-107.3,105.3-121.2c0,0,1824-357.6,1863.7-365.6c25.8-6,129.2-23.9,170.9-29.8c33.8-6,85.4-9.9,111.3-4
		c21.9,6,37.8,19.9,37.8,41.7c2,23.8-10,41.7-51.7,91.4L2276.3,898.7L2276.3,898.7z"/>
	<path class="st0" d="M1251,765.6L362.8,592.7c-27.8-6-131.1-23.8-172.9-29.8c-23.8-2-79.5-6-111.3,2C48.9,574.8,37,592.7,37,622.5
		c0-21.9,15.9-35.8,39.7-41.7c23.8-6,75.5-2,111.3,4c39.7,6,143.1,23.8,168.9,29.8c17.9,4,413.3,81.5,834.5,162.9L1251,765.6
		L1251,765.6z M660.9,1335.8c-129.2,43.7-302,105.3-349.7,121.2c-103.3,35.8-149,8-145-45.7c-2,27.8-2,51.7,13.9,65.6
		c19.9,19.9,53.6,31.8,139.1,2c0,0,236.4-83.4,385.5-135.1C690.7,1341.8,674.8,1337.8,660.9,1335.8L660.9,1335.8z"/>
	<path class="st0" d="M303.2,1435.2c-49.7,17.9-87.4,19.9-105.3,6c-8-6-9.9-17.9-8-33.8c4-21.8,17.9-41.7,43.7-67.5
		c0,0,33.8-37.8,71.5-79.5c29.8,6,149,31.8,313.9,65.6L303.2,1435.2z M106.5,700c-43.7-49.7-49.7-65.6-45.7-79.5
		c0-6,6-11.9,21.9-17.9c15.9-4,55.6-2,101.3,4c39.7,6,143.1,23.8,168.9,29.8l780.9,153l-804.7,157L106.5,700z"/>
</g>
</svg>
