<?xml version="1.0" encoding="utf-8"?>
<!-- Generator: Adobe Illustrator 25.1.0, SVG Export Plug-In . SVG Version: 6.00 Build 0)  -->
<svg version="1.1" id="Layer_1" xmlns="http://www.w3.org/2000/svg" xmlns:xlink="http://www.w3.org/1999/xlink" x="0px" y="0px"
	 viewBox="0 0 2500 2500" style="enable-background:new 0 0 2500 2500;" xml:space="preserve">
<style type="text/css">
	.st0{fill-rule:evenodd;clip-rule:evenodd;fill:none;stroke:#000000;stroke-width:3;stroke-miterlimit:10;}
</style>
<path class="st0" d="M930.6,451.1c105-35,206.5,92.8,206.5,92.8l59.5-9.9h70.1c223.2,43,397.4,252.4,509.4,394.6
	c59.8,76.4,206.1,139.3,299.4,159.3c49.6,10.8,33.1,8.6,83.1,49.9c56.5,46.4,13.3,129.2-36.7,195.7
	c-24.9,33.1-112.8,132.7-139.7,159.2c-93,92.8-302.5,205.4-435.8,278.5c-99.9,54.7-530.7,245.6-675.8,245.6
	c-99.9,0-362.6,10-252.9-209.4l40.1-79.4c23.3-56.2,49.8-140.6,49.8-178.9c23.5-122.7-123-461.1,0-686.6
	c34.3-63.1,104.3-155.7,103.2-162.5c-13.2-76.4,0-122.9,23.3-169.4C864.2,486.2,870.6,471,930.6,451.1L930.6,451.1z"/>
<path class="st0" d="M1131.8,582.6c163.1,5.6,209.3,83.5,209.3,83.5c110,103.5,195.8,324.7,276.3,384.6c30.9-8.9,56.4-18,144.1-19.7
	c-61.6-5.7-169.7-179.8-170.2-181c-30.8-56.7-109.3-178.3-226.1-239.9C1243.1,545.3,1131.8,582.6,1131.8,582.6L1131.8,582.6z"/>
<path class="st0" d="M697.8,1611.3c17-108.8-26.5-256.4-43-400.9c-22.6-194.1,17.2-368.3,152.7-504.5"/>
<path class="st0" d="M853.9,1815.3c-40-90.1,168.1-281.7,463.9-427.6c296.4-146.1,568.5-191.3,608.5-100.9
	c39.7,90.2-168.1,281.6-464.2,427.6C1165.9,1860.3,893.8,1905.7,853.9,1815.3L853.9,1815.3z"/>
<path class="st0" d="M1076.8,1574.9c15.5-9.1,233.4-139.5,264.3-114.1c49.7,138.1-43.6,255.5-142.4,288.3
	c-82.1,27.3-197.3,32.8-267.8-65.3v0c-1.5-3.4,32.8-29.3,34.5-29.3L1076.8,1574.9z"/>
<path class="st0" d="M2075.5,1087.9c0,0-878.6-111.4-1405.8,609.4"/>
</svg>
